<svg width="234" height="178" viewBox="0 0 234 178" fill="none" xmlns="http://www.w3.org/2000/svg">
<path d="M231.338 163.187L179.203 94.8202C176.088 90.7354 171.249 88.3403 166.112 88.3403H67.8838C62.7465 88.3403 57.9076 90.7354 54.7921 94.8202L2.66201 163.187C-1.72241 168.938 2.37792 177.222 9.61268 177.222H224.388C231.622 177.217 235.723 168.934 231.338 163.187Z" fill="url(#paint0_linear_1_507)"/>
<path d="M5.59727 163.329C4.21944 163.329 2.94105 163.737 1.86625 164.432C-1.12614 170.06 2.88897 177.217 9.61237 177.217H224.387C231.111 177.217 235.126 170.06 232.133 164.432C231.059 163.737 229.78 163.329 228.402 163.329H5.59727Z" fill="#C9CDD3"/>
<path d="M94.621 123.499L131.922 163.329H116.676L83.6647 128.294L94.621 123.499Z" fill="white"/>
<path d="M172.215 89.5236C170.297 88.7568 168.233 88.345 166.117 88.345H147.168L15.9052 145.821L2.66199 163.187C2.45839 163.457 2.27847 163.732 2.10802 164.006L172.215 89.5236Z" fill="#FEE379"/>
<path d="M2.1127 164.006L83.6648 128.294L116.676 163.329L2.1127 164.006Z" fill="#86ADFF"/>
<path d="M15.9052 145.821L147.168 88.345H67.8837C62.7465 88.345 57.9075 90.74 54.792 94.8248L15.9052 145.821Z" fill="#69CA9F"/>
<path d="M197.816 119.23L193.786 113.947L169.241 124.673L146.76 100.666L135.951 105.399L158.422 129.397L116.998 147.497L121.742 152.462L163.1 134.395L190.197 163.329H205.439L173.919 129.666L197.816 119.23Z" fill="#C9CDD3"/>
<path opacity="0.3" d="M181.481 97.8069L179.204 94.8202C176.088 90.7354 171.249 88.3403 166.112 88.3403H116.998V125.885L181.481 97.8069Z" fill="url(#paint1_linear_1_507)"/>
<path d="M111.387 1.19154C92.6278 3.70016 78.2861 18.7283 76.539 37.5667C75.3363 50.5263 80.2321 62.3689 88.6884 70.5764C91.946 73.7382 94.9715 77.1131 97.7461 80.6725C105.62 90.7685 111.013 102.573 113.802 115.064L116.046 125.118C116.146 125.567 116.543 125.885 117.003 125.885C117.462 125.885 117.86 125.567 117.959 125.118L120.341 114.43C123.049 102.285 128.243 90.7969 135.847 80.947C138.56 77.4349 141.533 74.1264 144.786 71.0829C152.698 63.6753 157.646 53.1391 157.646 41.4432C157.641 17.1568 136.335 -2.15015 111.387 1.19154Z" fill="url(#paint2_linear_1_507)"/>
<path d="M125.907 53.5461C130.827 48.6274 130.827 40.6526 125.907 35.7339C120.987 30.8153 113.009 30.8153 108.089 35.7339C103.169 40.6526 103.169 48.6274 108.089 53.5461C113.009 58.4648 120.987 58.4648 125.907 53.5461Z" fill="white"/>
<defs>
<linearGradient id="paint0_linear_1_507" x1="18.983" y1="74.3934" x2="186.648" y2="213.806" gradientUnits="userSpaceOnUse">
<stop stop-color="#F6F8FF"/>
<stop offset="1" stop-color="#DEE0ED"/>
</linearGradient>
<linearGradient id="paint1_linear_1_507" x1="193.916" y1="65.8242" x2="109.253" y2="117.5" gradientUnits="userSpaceOnUse">
<stop/>
<stop offset="1"/>
</linearGradient>
<linearGradient id="paint2_linear_1_507" x1="128.623" y1="85.3314" x2="98.9239" y2="-14.6655" gradientUnits="userSpaceOnUse">
<stop stop-color="#5565EE"/>
<stop offset="0.3091" stop-color="#5F75FF"/>
<stop offset="0.5137" stop-color="#6E89FA"/>
<stop offset="0.7638" stop-color="#6E89FA"/>
<stop offset="1" stop-color="#7D99FD"/>
</linearGradient>
</defs>
</svg>
